<?xml version="1.0" encoding="UTF-8" standalone="no"?><!DOCTYPE svg PUBLIC "-//W3C//DTD SVG 1.1//EN" "http://www.w3.org/Graphics/SVG/1.1/DTD/svg11.dtd"><svg width="100%" height="100%" viewBox="0 0 100 100" version="1.1" xmlns="http://www.w3.org/2000/svg" xmlns:xlink="http://www.w3.org/1999/xlink" xml:space="preserve" xmlns:serif="http://www.serif.com/" style="fill-rule:evenodd;clip-rule:evenodd;stroke-linejoin:round;stroke-miterlimit:1.41421;"><path d="M50,4.104c25.302,0 45.843,20.565 45.843,45.896c0,25.331 -20.541,45.896 -45.843,45.896c-25.302,0 -45.843,-20.565 -45.843,-45.896c0,-25.331 20.541,-45.896 45.843,-45.896Zm-0.004,4.238c-23.016,0 -41.682,18.664 -41.682,41.691c0,18.415 11.943,34.041 28.508,39.553c2.086,0.382 2.846,-0.906 2.846,-2.009c0,-0.99 -0.036,-3.611 -0.057,-7.091c-11.595,2.521 -14.041,-5.586 -14.041,-5.586c-1.897,-4.817 -4.63,-6.099 -4.63,-6.099c-3.785,-2.587 0.287,-2.533 0.287,-2.533c4.184,0.294 6.385,4.294 6.385,4.294c3.718,6.372 9.758,4.532 12.132,3.465c0.379,-2.695 1.457,-4.532 2.647,-5.574c-9.257,-1.052 -18.989,-4.629 -18.989,-20.603c0,-4.55 1.625,-8.271 4.292,-11.186c-0.43,-1.054 -1.861,-5.292 0.409,-11.032c0,0 3.498,-1.121 11.462,4.273c3.325,-0.923 6.892,-1.387 10.436,-1.402c3.542,0.015 7.107,0.479 10.436,1.402c7.959,-5.394 11.452,-4.273 11.452,-4.273c2.275,5.74 0.845,9.978 0.417,11.032c2.672,2.915 4.284,6.636 4.284,11.186c0,16.015 -9.747,19.539 -19.032,20.57c1.495,1.287 2.828,3.831 2.828,7.721c0,5.573 -0.051,10.07 -0.051,11.436c0,1.114 0.752,2.411 2.866,2.004c16.552,-5.522 28.485,-21.138 28.485,-39.548c0,-23.027 -18.666,-41.691 -41.69,-41.691Z" style="fill:#808080;"/></svg>