<svg width="200" height="200" fill="#000000" 
    xmlns="http://www.w3.org/2000/svg" 
    xmlns:xlink="http://www.w3.org/1999/xlink" version="1.1" x="0px" y="0px" viewBox="0 0 100 100" enable-background="new 0 0 100 100" xml:space="preserve">
    <path d="M54.167,6.25h-50C0,6.25,0,6.25,0,10.417v4.167c0,4.167,0,4.167,4.167,4.167h50c4.167,0,4.167,0,4.167-4.167v-4.167  C58.333,6.25,58.333,6.25,54.167,6.25z M87.5,31.25H4.167C0,31.25,0,31.25,0,35.417v4.167c0,4.167,0,4.167,4.167,4.167H87.5  c4.167,0,4.167,0,4.167-4.167v-4.167C91.667,31.25,91.667,31.25,87.5,31.25z M70.833,56.25H4.167C0,56.25,0,56.25,0,60.417v4.167  c0,4.167,0,4.167,4.167,4.167h66.667c4.167,0,4.167,0,4.167-4.167v-4.167C75,56.25,75,56.25,70.833,56.25z M95.833,81.25H4.167  C0,81.25,0,81.25,0,85.417v4.167c0,4.167,0,4.167,4.167,4.167h91.667c4.167,0,4.167,0,4.167-4.167v-4.167  C100,81.25,100,81.25,95.833,81.25z"></path>
</svg>