<svg xmlns="http://www.w3.org/2000/svg" viewBox="0 0 64 64" baseProfile="tiny"><path d="M31.1875 0C13.9062.4375 0 14.6133 0 32c0 17.664 14.336 32 32 32s32-14.336 32-32S49.664 0 32 0c-.2773 0-.539-.0078-.8125 0Zm-.0313 5.5c.2852-.0078.5586 0 .8438 0 14.629 0 26.5 11.871 26.5 26.5S46.629 58.5 32 58.5 5.5 46.629 5.5 32c0-14.3438 11.4219-26.0469 25.6563-26.5Z"/><path d="M36.625 15.9375c0 2.5508-2.0703 4.625-4.625 4.625s-4.625-2.0742-4.625-4.625c0-2.5547 2.0703-4.625 4.625-4.625s4.625 2.0703 4.625 4.625Zm-9.4102 36.75h9.5704v-15.375h2.8945s-.004-10.9922 0-12.7227c-.004-.457.039-1.3632-.6211-2.0273-.664-.6602-1.5586-.621-2.0273-.621-.4727.0038-9.5899.0038-10.0626 0-.4687 0-1.3632-.0392-2.0273.621-.6602.664-.6172 1.5703-.621 2.0273.0038 1.7305 0 12.7227 0 12.7227h2.8944Z"/></svg>