<svg xmlns="http://www.w3.org/2000/svg" width="64" height="64"><path d="M31.1875 0C13.9045.4384 0 14.612 0 32c0 17.664 14.336 32 32 32s32-14.336 32-32S49.664 0 32 0c-.276 0-.5382-.007-.8125 0zm-.0313 5.5c.2836-.009.5581 0 .8438 0 14.628 0 26.5 11.872 26.5 26.5S46.628 58.5 32 58.5 5.5 46.628 5.5 32c0-14.3423 11.423-26.0487 25.6563-26.5z"/><path d="M18.1158 26.7845H15.375l6.2188 6.9688 6.2187-6.9688h-2.2439c.4861-3.3998 3.477-5.5864 6.9314-5.3125.1366.0109.2679 0 .4063 0 5.6274 0 7.8468 4.256 8.0312 10.5313.1925 6.5492-3.6035 10.6204-8.0312 10.5312-4.6734-.0922-6.4441-2.3275-7.125-5.7187h-8.3438c1.3732 7.8112 7.1239 12.392 15.2813 12.4062 9.2345.0163 15.9062-7.7093 15.9062-17.2187 0-10.1549-6.6694-17.2188-15.9062-17.2188-.2743 0-.5417-.0148-.8125 0-.0656.0037-.122-.001-.1875 0-5.7723.096-13.603 4.1398-13.603 12z"/></svg>