<svg stroke="currentColor" fill="currentColor" stroke-width="0" viewBox="0 0 448 512" height="200" width="200" xmlns="http://www.w3.org/2000/svg"><path d="M433 179c0-97-64-126-64-126-62-28-228-28-290 0 0 0-64 29-64 126 0 116-7 260 106 289 40 11 75 13 103 12 51-3 79-18 79-18l-1-37s-37 11-77 10c-41-2-83-5-90-54a103 103 0 0 1-1-14c86 21 159 9 179 7 56-7 105-42 111-73 10-50 9-122 9-122zm-75 125h-47V190c0-50-64-51-64 7v63h-46v-63c0-58-64-57-64-7v114H90c0-122-5-148 19-175 25-29 79-30 103 6l12 20 12-20c24-37 78-34 103-6 24 28 19 53 19 175z" stroke="none"/></svg>