<svg height="800" width="800" xmlns="http://www.w3.org/2000/svg" viewBox="0 0 512 512" xml:space="preserve"><path class="st0" d="M276.2 252.2a63.8 63.8 0 0 1-40.4 0c-46.3 7.6-70.5 41.6-70.5 82.9h181.4c0-41.3-24.2-75.3-70.5-83zM256 240.8a49.7 49.7 0 0 0 49.7-49.7v-14a49.7 49.7 0 1 0-99.4 0v14a49.7 49.7 0 0 0 49.7 49.7z"/><path class="st0" d="M378.4 0H133.6a86 86 0 0 0-85.9 85.9v340.2a86 86 0 0 0 85.9 85.9h218.9l9.3-9.3 93.2-93.2 9.3-9.3V85.9A86 86 0 0 0 378.4 0zm54.1 387h-48.1a45 45 0 0 0-45.1 45v48.2H133.6a54 54 0 0 1-54.1-54V85.8a54 54 0 0 1 54-54.1h244.9a54.1 54.1 0 0 1 54.1 54.1v301z"/></svg>