<svg viewBox="0 0 200 200" xmlns="http://www.w3.org/2000/svg" xml:space="preserve" fill-rule="evenodd" clip-rule="evenodd" stroke-linecap="round" stroke-linejoin="round"><path d="M46.7 114.5h66.6m-66.6 29.1h66.6M140 56.4h30c5.6 0 10 4.8 10 11v90.8c0 12-9 21.8-20 21.8M140 56.4v101.8c0 12 9 21.8 20 21.8M140 56.4V30.9c0-6-4.4-10.9-10-10.9H30c-5.6 0-10 4.8-10 11v127.2c0 12 9 21.8 20 21.8h120" fill="none" stroke="#000" stroke-width="13.9"/><path d="M59.6 90a17.4 17.4 0 0 1-16.2-9.6c-1.6-3.2-2.4-7-2.4-11.4s.8-8.2 2.4-11.3A17.3 17.3 0 0 1 59.6 48c2.3 0 4.4.3 6.4 1a15 15 0 0 1 9 7.4 19 19 0 0 1 1.8 6.1h-8.3A8.2 8.2 0 0 0 63 56c-1-.3-2-.5-3.2-.5-2.1 0-4 .6-5.5 1.6a9.9 9.9 0 0 0-3.7 4.7c-.8 2-1.3 4.4-1.3 7.3 0 3 .5 5.5 1.4 7.5a9 9 0 0 0 3.6 4.5 10 10 0 0 0 8.6 1.1c1-.3 1.9-.8 2.6-1.4a8.8 8.8 0 0 0 3-5.2H77A16.6 16.6 0 0 1 59.6 90Zm35-.5-14-41h9L96 68.3a203.6 203.6 0 0 1 4 14.4 1975.7 1975.7 0 0 0 3.8-14.4l6.1-19.8h9.1l-13.7 41H94.6Z" fill-rule="nonzero"/></svg>
